<?xml version="1.0"?>
<svg width="404" height="432" xmlns="http://www.w3.org/2000/svg" xmlns:svg="http://www.w3.org/2000/svg" preserveAspectRatio="xMidYMid meet" version="1.0">
 <g class="layer">
  <title>Layer 1</title>
  <g fill="#000000" id="svg_1" transform="matrix(0.1 0 0 -0.1 0 0)">
   <path d="m1625,-80c-122,-6 -181,-27 -202,-70c-6,-14 -21,-106 -33,-205c-12,-99 -24,-194 -26,-210l-5,-31l168,-10l168,-11l139,-66c76,-37 139,-67 141,-67c2,0 41,-17 87,-39c45,-21 101,-44 123,-50c89,-27 196,-74 205,-90c6,-13 2,-24 -20,-45c-41,-38 -47,-84 -21,-154c20,-54 129,-227 137,-219c3,2 5,84 7,181c2,185 5,195 49,196c15,0 16,-3 2,-35c-10,-26 -14,-80 -14,-214l0,-180l43,-40c23,-21 54,-49 69,-61l28,-21l2,278l3,277l24,13c34,16 41,9 30,-30c-6,-17 -13,-147 -16,-288l-6,-257l24,-12c13,-7 45,-19 71,-26l48,-12l0,31c0,18 2,157 3,310c4,289 5,296 45,297c11,0 12,-13 5,-62c-4,-35 -8,-180 -8,-323l0,-260l65,-16l65,-16l5,336c3,185 7,337 8,337c1,1 14,4 28,7c24,4 25,2 19,-22c-4,-14 -10,-169 -14,-344c-6,-312 -6,-318 14,-322c11,-2 41,-7 67,-13c26,-5 50,-7 53,-4c3,3 5,160 5,348c0,329 1,344 19,354c32,17 44,13 36,-12c-5,-16 -25,-689 -20,-705c0,-1 33,-5 73,-8l72,-8l0,357l0,356l26,10c36,14 37,13 29,-17c-4,-16 -11,-167 -15,-338c-4,-170 -11,-322 -15,-336c-7,-26 -6,-26 64,-33c39,-4 75,-4 81,-1c6,4 10,132 10,354c0,362 1,371 43,371c15,0 18,-5 13,-22c-16,-51 -25,-207 -28,-451l-3,-257l73,0l72,0l0,384l0,384l-37,6c-71,12 -398,26 -588,25c-255,0 -481,-13 -593,-35c-90,-17 -93,-17 -115,2c-35,30 -60,42 -176,83c-60,22 -124,46 -142,54c-19,9 -70,32 -114,51c-143,65 -195,91 -195,99c0,4 24,7 53,7c62,0 108,13 232,68c58,25 119,43 170,51c100,14 570,30 900,31l250,1l-30,22c-16,12 -99,67 -185,121l-155,100l-110,17c-200,31 -309,50 -400,70l-90,19l470,-5c259,-3 494,-8 523,-11c57,-7 69,5 29,30c-17,12 -80,18 -257,26c-245,11 -1363,11 -1555,0z" fill="#10295e" id="svg_2"/>
   <path d="m1287,-220c-70,-83 -179,-315 -168,-359c6,-23 13,-26 53,-29c29,-2 49,2 56,11c15,17 106,407 97,415c-1,2 -18,-15 -38,-38z" fill="#10295e" id="svg_3"/>
   <path d="m724,-528c2,-9 7,-29 10,-44c11,-47 66,-72 173,-76l94,-4l14,-33c17,-42 56,-69 86,-60c22,7 22,8 -5,22c-18,9 -36,34 -52,73l-26,58l-71,6c-152,14 -166,17 -197,46c-22,20 -30,24 -26,12z" fill="#10295e" id="svg_4"/>
   <path d="m1305,-865c-67,-24 -78,-46 -72,-145c5,-98 37,-197 70,-222c41,-31 101,-39 337,-45c222,-5 464,6 534,25l28,8l-60,79c-33,44 -76,96 -96,115l-36,34l6,-45c8,-55 -13,-107 -58,-144c-39,-33 -125,-35 -169,-4c-34,24 -69,87 -69,124c0,49 46,119 90,138c23,9 20,11 -45,32c-38,12 -91,25 -116,28l-46,6l38,-37c89,-90 62,-235 -55,-291c-56,-28 -91,-26 -154,5c-74,37 -106,93 -100,173c5,70 38,120 99,151c21,11 39,23 39,25c0,11 -128,3 -165,-10z" fill="#10295e" id="svg_5"/>
   <path d="m1448,-986c-22,-11 -28,-22 -28,-47c0,-32 15,-57 33,-57c4,0 1,10 -7,22c-22,31 -20,45 10,73c31,29 30,30 -8,9z" fill="#10295e" id="svg_6"/>
   <path d="m720,-1030c-58,-4 -108,-8 -112,-9c-4,0 3,-12 16,-26l24,-26l97,26c53,14 107,25 119,26c20,0 20,1 1,9c-11,5 -24,8 -30,8c-5,-1 -57,-5 -115,-8z" fill="#10295e" id="svg_7"/>
   <path d="m1801,-1039c-32,-20 -9,-102 28,-100c11,0 9,3 -6,9c-18,7 -23,17 -23,43c0,18 5,38 12,45c14,14 9,15 -11,3z" fill="#10295e" id="svg_8"/>
   <path d="m814,-1355c-53,-115 -90,-474 -81,-777c6,-202 15,-186 -89,-168c-113,20 -101,3 -108,147c-32,628 -95,826 -167,522c-22,-97 -24,-122 -24,-384c1,-257 3,-289 24,-389c15,-65 32,-117 42,-127c16,-16 38,-18 186,-18l168,1l9,-39c22,-96 37,-142 56,-165c19,-25 24,-26 177,-32c87,-4 257,-14 378,-21c238,-15 722,-31 1175,-39c432,-7 1260,14 1260,33c0,3 -137,54 -303,114l-303,107l-807,0l-807,0l6,70c7,69 7,70 -17,70c-13,0 -131,-5 -262,-11c-314,-14 -300,-23 -316,197c-26,347 -52,652 -61,703c-5,31 -14,85 -20,120c-11,66 -22,94 -48,124c-25,29 -42,20 -68,-38zm52,-146c32,-52 55,-604 35,-844c-18,-214 -35,-294 -58,-272c-3,4 -12,55 -21,114c-29,208 -20,846 15,991c6,24 18,29 29,11zm-414,-349c12,-179 -1,-523 -21,-543c-6,-6 -14,-1 -23,14c-19,35 -19,673 1,708c12,21 15,22 23,8c5,-9 14,-93 20,-187z" fill="#10295e" id="svg_9"/>
   <path d="m1403,-1640c-12,-5 -29,-19 -37,-32c-15,-24 -40,-135 -51,-228c-4,-30 -16,-104 -26,-164c-25,-143 -25,-231 -1,-241c34,-14 309,-17 440,-6c156,14 200,29 246,83c52,60 158,270 222,437c29,77 30,97 5,111c-23,12 -179,26 -451,40c-232,12 -317,12 -347,0zm565,-98c106,-1 161,-6 157,-12c-7,-12 -673,-14 -702,-2c-15,6 225,18 342,17c22,-1 113,-2 203,-3zm122,-112c0,-14 -667,-13 -675,0c-4,6 54,11 157,12c257,5 518,-2 518,-12zm-192,-89c74,-1 122,-5 122,-11c0,-12 -549,-14 -601,-2c-34,7 229,20 316,15c22,-1 95,-2 163,-2zm77,-111c-25,-11 -541,-11 -575,0c-14,4 115,8 285,8c181,0 302,-3 290,-8zm-145,-91c81,-2 95,-4 60,-9c-53,-8 -368,-9 -460,-1c-59,5 -54,7 55,12c66,3 147,4 180,3c33,-2 107,-4 165,-5zm19,-105c2,-2 -110,-3 -250,-2c-192,1 -228,3 -149,8c100,6 390,1 399,-6z" fill="#10295e" id="svg_10"/>
   <path d="m2573,-1915c-83,-36 -210,-142 -288,-240c-30,-38 -55,-74 -55,-80c0,-10 74,-44 145,-66c30,-10 214,-14 740,-16l700,-3l-34,29c-34,28 -37,28 -195,35c-89,4 -244,16 -346,26c-102,11 -203,21 -225,23c-22,2 149,5 380,6l420,2l-33,29c-30,28 -38,30 -106,30c-40,0 -138,6 -217,14c-79,8 -196,18 -259,21c-270,15 -222,22 165,24c220,1 410,4 422,7c22,6 22,6 -5,29c-24,20 -42,23 -157,29c-71,4 -224,16 -340,26c-115,11 -228,21 -250,23c-22,2 143,4 368,5c224,1 407,4 407,7c0,3 -12,17 -27,30l-28,24l-575,0c-473,0 -581,-2 -607,-14z" fill="#10295e" id="svg_11"/>
   <path d="m140,-3160l0,-40l60,0c58,0 60,-1 60,-25c0,-26 0,-26 24,-8c25,19 60,66 72,96c6,16 -3,17 -105,17l-111,0l0,-40z" fill="#10295e" id="svg_12"/>
   <path d="m363,-3168c-13,-28 -39,-60 -62,-77l-41,-30l0,-262l0,-263l45,0l45,0l2,278c1,152 2,286 2,297c1,17 9,20 64,23l62,3l0,39l0,40l-47,0c-47,-1 -48,-2 -70,-48z" fill="#10295e" id="svg_13"/>
   <path d="m810,-3149c19,-17 52,-36 74,-42c60,-16 86,-49 86,-106c0,-27 -7,-58 -15,-69c-18,-27 -65,-46 -101,-42l-29,3l-2,105c-1,102 -2,105 -30,128c-68,56 -63,80 -63,-293l0,-335l45,0l45,0l0,160l0,160l40,0c38,0 40,-2 50,-42c7,-24 22,-74 35,-113c12,-38 28,-91 35,-117l13,-48l49,0c44,0 49,2 43,18c-4,9 -11,31 -15,47c-12,50 -60,198 -76,234c-15,34 -15,35 14,58c56,43 79,153 48,228c-8,19 -32,46 -56,61c-37,24 -54,28 -133,32l-92,3l35,-30z" fill="#10295e" id="svg_14"/>
   <path d="m1427,-3187c-8,-38 -27,-124 -42,-193c-14,-69 -37,-172 -50,-230c-13,-58 -26,-124 -29,-147l-6,-43l49,0l49,0l11,88c6,48 16,110 22,137c5,28 19,102 31,165c11,63 24,119 28,124c5,4 11,-18 15,-50c3,-33 13,-92 21,-133c8,-40 14,-77 14,-82c0,-4 -21,-9 -47,-11c-46,-3 -48,-4 -51,-35l-3,-33l54,0l55,0l11,-47c33,-134 26,-123 80,-123l49,0l-18,78c-27,116 -79,356 -126,580c-4,19 -11,22 -53,22l-49,0l-15,-67z" fill="#10295e" id="svg_15"/>
   <path d="m1940,-3155l0,-35l96,0c91,0 95,-1 89,-20c-10,-31 2,-24 35,22c49,67 47,68 -95,68l-125,0l0,-35z" fill="#10295e" id="svg_16"/>
   <path d="m2213,-3131c-7,-7 -13,-19 -13,-27c0,-7 -24,-39 -53,-70c-45,-48 -62,-78 -107,-187c-28,-71 -70,-172 -91,-223c-21,-51 -39,-108 -39,-127l0,-35l160,0l160,0l0,35l0,35l-110,0c-60,0 -110,2 -110,5c0,2 18,48 41,102c51,124 69,167 114,278c20,50 43,105 51,123c19,40 16,110 -3,91z" fill="#10295e" id="svg_17"/>
   <path d="m2591,-3157c-5,-21 -12,-54 -16,-73c-3,-19 -15,-75 -25,-125c-11,-49 -33,-151 -49,-225c-16,-74 -32,-154 -36,-177l-7,-43l46,0c24,0 48,5 51,10c4,6 11,52 16,103c6,50 19,124 29,162c11,39 25,109 31,158c6,48 15,87 19,87c5,0 11,-26 15,-57c7,-62 22,-164 30,-200c5,-20 1,-22 -42,-25c-46,-3 -48,-4 -51,-35l-3,-32l57,-3l58,-3l15,-80l16,-80l48,-3c26,-2 47,-2 47,0c0,9 -33,176 -50,253c-53,237 -69,313 -75,350c-12,75 -12,75 -65,75c-48,0 -49,-1 -59,-37z" fill="#10295e" id="svg_18"/>
   <path d="m3185,-3154c24,-21 51,-35 67,-36c41,0 87,-47 89,-90c2,-66 -1,-81 -26,-105c-18,-19 -35,-25 -68,-25c-56,0 -58,6 -56,123l2,90l-39,33c-22,18 -42,33 -46,34c-5,0 -8,-151 -8,-335l0,-335l48,0l47,0l0,157l0,158l79,7c92,9 116,22 145,81c39,80 20,188 -43,247c-24,22 -37,25 -129,28l-102,3l40,-35z" fill="#10295e" id="svg_19"/>
   <path d="m3785,-3153c24,-22 51,-36 67,-37c61,-1 99,-72 84,-154c-8,-43 -45,-66 -106,-66l-40,0l0,104l0,104l-40,36c-22,20 -45,36 -50,36c-6,0 -10,-119 -10,-335l0,-335l50,0l50,0l0,159l0,158l82,6c81,5 83,6 120,46c37,40 38,41 38,121c0,87 -11,119 -54,159c-23,21 -37,25 -128,29l-103,4l40,-35z" fill="#10295e" id="svg_20"/>
   <path d="m2720,-3921c-18,-32 -2,-36 28,-6c26,26 26,27 5,27c-12,0 -27,-9 -33,-21z" fill="#10295e" id="svg_21"/>
   <path d="m323,-3931c-33,-21 -63,-81 -63,-127c0,-15 10,-48 23,-72c17,-36 30,-48 62,-58c46,-15 115,-7 115,13c0,11 -11,13 -48,8c-44,-5 -52,-2 -81,23c-40,37 -50,96 -26,147c20,43 61,62 115,53c24,-4 41,-2 46,5c20,33 -94,40 -143,8z" fill="#10295e" id="svg_22"/>
   <path d="m1990,-4050l0,-140l76,0c56,0 75,3 72,13c-3,7 -27,13 -61,15l-57,3l0,124c0,104 -2,125 -15,125c-13,0 -15,-22 -15,-140z" fill="#10295e" id="svg_23"/>
   <path d="m3200,-3931c0,-24 23,-21 28,4c2,10 -3,17 -12,17c-10,0 -16,-9 -16,-21z" fill="#10295e" id="svg_24"/>
   <path d="m1060,-3955c0,-8 -9,-20 -20,-27c-23,-15 -27,-33 -5,-24c13,4 15,-7 15,-72c0,-88 11,-111 54,-115c39,-3 44,19 6,26l-30,7l0,75l0,75l31,0c20,0 29,4 26,13c-2,7 -15,11 -30,9c-23,-3 -27,0 -27,22c0,14 -4,26 -10,26c-5,0 -10,-7 -10,-15z" fill="#10295e" id="svg_25"/>
   <path d="m3040,-3965c-5,-14 -14,-25 -20,-25c-5,0 -10,-4 -10,-10c0,-5 6,-9 13,-7c9,1 13,-21 15,-81c3,-74 5,-84 27,-98c14,-9 33,-13 45,-9c29,9 25,23 -7,27c-28,3 -28,4 -31,85c-2,71 -1,82 13,77c8,-3 23,-3 33,2c14,6 11,8 -13,13c-21,4 -31,13 -33,29c-4,29 -20,28 -32,-3z" fill="#10295e" id="svg_26"/>
   <path d="m584,-3990c-33,-13 -54,-50 -54,-93c0,-53 23,-93 62,-106c37,-13 94,-5 102,14c4,11 -5,13 -42,9c-54,-6 -77,7 -87,48c-7,26 -6,26 42,26c104,-1 102,-2 93,38c-5,20 -15,43 -22,50c-18,18 -68,26 -94,14zm74,-32c7,-7 12,-20 12,-30c0,-15 -9,-18 -55,-18c-59,0 -63,4 -39,38c17,24 62,30 82,10z" fill="#10295e" id="svg_27"/>
   <path d="m852,-3990c-13,-6 -35,-7 -48,-4l-24,6l0,-101c0,-79 3,-101 14,-101c18,0 26,31 26,101c0,30 5,60 12,67c16,16 75,15 85,0c4,-7 10,-48 13,-91c7,-103 24,-104 28,-1c2,66 -1,85 -15,102c-22,26 -60,35 -91,22z" fill="#10295e" id="svg_28"/>
   <path d="m1278,-3987c-10,-2 -18,-9 -18,-14c0,-5 -7,-9 -15,-9c-8,0 -15,5 -15,10c0,6 -4,10 -10,10c-6,0 -10,-42 -10,-106c0,-80 3,-105 13,-102c7,3 14,32 17,80c5,82 18,105 58,110c15,2 26,8 25,13c-2,12 -21,15 -45,8z" fill="#10295e" id="svg_29"/>
   <path d="m1444,-3987c-56,-11 -83,-110 -46,-169c39,-62 139,-49 162,20c14,44 5,108 -18,129c-19,17 -67,27 -98,20zm80,-45c9,-12 16,-39 16,-58c0,-68 -66,-104 -110,-60c-25,25 -27,95 -3,122c23,26 78,24 97,-4z" fill="#10295e" id="svg_30"/>
   <path d="m1672,-3990c-55,-23 -41,-78 28,-107c43,-18 51,-26 48,-45c-3,-21 -8,-23 -55,-23c-60,1 -74,-19 -20,-29c45,-8 90,6 104,34c16,33 3,54 -60,87c-71,38 -69,57 8,63c33,3 55,8 50,12c-20,12 -80,17 -103,8z" fill="#10295e" id="svg_31"/>
   <path d="m2254,-3990c-54,-22 -73,-116 -34,-170c41,-57 138,-43 160,24c14,44 5,108 -18,129c-22,20 -81,29 -108,17zm91,-50c18,-35 19,-64 4,-93c-23,-43 -66,-50 -100,-16c-18,18 -21,30 -17,71c6,55 17,68 65,68c26,0 36,-6 48,-30z" fill="#10295e" id="svg_32"/>
   <path d="m2493,-3990c-36,-15 -42,-91 -10,-112c7,-4 7,-11 -2,-22c-7,-8 -10,-24 -7,-34c4,-12 -1,-25 -14,-37c-28,-25 -25,-50 8,-75c22,-18 36,-21 75,-17c59,5 87,29 87,73c0,41 -21,54 -84,54c-39,0 -46,3 -46,20c0,15 9,21 41,26c53,9 69,26 69,75c0,24 4,38 10,34c6,-3 10,-1 10,4c0,6 -10,11 -22,11c-13,0 -39,2 -58,5c-19,3 -45,0 -57,-5zm68,-20c12,-7 19,-21 19,-40c0,-37 -28,-54 -64,-40c-35,13 -37,66 -3,80c29,11 26,11 48,0zm42,-192c12,-39 -32,-65 -93,-56c-32,4 -48,32 -31,52c17,20 117,23 124,4z" fill="#10295e" id="svg_33"/>
   <path d="m2710,-4091c0,-71 4,-108 10,-104c6,3 10,52 10,111c0,63 -4,104 -10,104c-6,0 -10,-44 -10,-111z" fill="#10295e" id="svg_34"/>
   <path d="m2855,-3987c-31,-8 -45,-23 -45,-48c0,-27 24,-49 72,-64c40,-13 55,-36 36,-58c-9,-11 -25,-14 -61,-10c-56,7 -63,-13 -8,-24c49,-10 100,7 107,36c10,38 -1,52 -61,81c-72,36 -71,58 3,62c28,2 52,7 52,13c0,5 -8,9 -17,9c-10,0 -27,2 -38,4c-11,2 -29,2 -40,-1z" fill="#10295e" id="svg_35"/>
   <path d="m3206,-3987c-3,-3 -6,-51 -6,-105c0,-75 3,-99 13,-96c8,3 13,35 15,100c3,87 -4,119 -22,101z" fill="#10295e" id="svg_36"/>
   <path d="m3375,-3987c-44,-11 -65,-43 -65,-98c0,-81 47,-125 116,-106c34,9 25,26 -13,22c-44,-3 -73,27 -73,77c0,59 22,82 78,82c28,0 42,4 37,9c-13,13 -56,20 -80,14z" fill="#10295e" id="svg_37"/>
   <path d="m3574,-3990c-54,-22 -74,-122 -34,-172c38,-49 128,-41 150,12c28,67 12,136 -36,156c-38,16 -50,16 -80,4zm92,-51c28,-56 -2,-129 -54,-129c-40,0 -62,27 -62,77c0,65 13,83 60,83c34,0 42,-4 56,-31z" fill="#10295e" id="svg_38"/>
   <path d="m3811,-3989c-26,-7 -41,-35 -33,-65c3,-10 27,-28 58,-42c87,-38 64,-87 -32,-69c-27,5 -35,3 -32,-6c14,-43 133,-29 144,16c10,39 -1,53 -61,82c-72,35 -71,57 3,61c28,2 52,7 52,13c0,5 -8,9 -17,9c-10,0 -27,2 -38,4c-11,3 -31,1 -44,-3z" fill="#10295e" id="svg_39"/>
  </g>
 </g>
</svg>